<?xml version="1.0" encoding="iso-8859-1"?>
<!-- Uploaded to: SVG Repo, www.svgrepo.com, Generator: SVG Repo Mixer Tools -->
<svg stroke-width="0.2" fill="#415A77" version="1.1" id="Layer_1" xmlns="http://www.w3.org/2000/svg" xmlns:xlink="http://www.w3.org/1999/xlink" 
	 viewBox="0 0 512 512" width="400px" height="400px" xml:space="preserve">
<g>
	<g>
		<g>
			<path stroke-width="0.2" d="M85.333,42.671c11.776,0,21.333-9.557,21.333-21.333S97.109,0.005,85.333,0.005S64,9.562,64,21.338
				S73.557,42.671,85.333,42.671z"/>
			<path stroke-width="0.2" d="M170.667,106.671c11.776,0,21.333-9.557,21.333-21.333s-9.557-21.333-21.333-21.333s-21.333,9.557-21.333,21.333
				S158.891,106.671,170.667,106.671z"/>
			<path stroke-width="0.2" d="M490.667,213.338h-0.003c-0.058-35.37-28.72-64-64.104-64H85.44c-35.384,0-64.046,28.63-64.104,64h-0.003
				C9.551,213.338,0,222.889,0,234.671c0,11.782,9.551,21.333,21.333,21.333v14.016c0,126.202,95.688,233.484,219.081,241.47
				c135.976,8.801,250.253-98.719,250.253-234.153v-21.333c11.782,0,21.333-9.551,21.333-21.333
				C512,222.889,502.449,213.338,490.667,213.338z M186.618,455.901c-48.519-19.589-87.568-59.519-107.717-109.656
				c8.955-3.229,18.271-4.906,27.765-4.906c47.119,0,85.333,38.214,85.333,85.333C192,436.712,190.155,446.54,186.618,455.901z
				 M325.471,456.15c-3.6-9.439-5.479-19.35-5.479-29.472c0-47.133,38.206-85.333,85.333-85.333c10.128,0,20.036,1.873,29.456,5.46
				C415.325,396.86,375.52,436.679,325.471,456.15z M448,277.338c0,9.573-0.713,18.97-2.06,28.155
				c-12.991-4.457-26.643-6.815-40.615-6.815c-70.69,0-128,57.302-128,128c0,13.957,2.359,27.596,6.817,40.586
				c-13.276,1.956-26.982,2.555-40.972,1.65c-5.167-0.334-10.272-0.897-15.316-1.654c4.455-12.987,6.813-26.628,6.813-40.587
				c0-70.683-57.317-128-128-128c-13.606,0-26.905,2.263-39.62,6.541C65.052,293.757,64,281.996,64,270.021v-14.016
				c11.782,0,21.333-9.551,21.333-21.333c0-11.78-9.548-21.33-21.328-21.333c0.058-11.806,9.615-21.334,21.435-21.334h341.12
				c11.819,0,21.377,9.528,21.435,21.334c-11.779,0.003-21.328,9.553-21.328,21.333c0,11.782,9.551,21.333,21.333,21.333V277.338z"
				/>
			<path stroke-width="0.2" d="M320,85.338c0,11.782,9.551,21.333,21.333,21.333c11.782,0,21.333-9.551,21.333-21.333
				c11.782,0,21.333-9.551,21.333-21.333c0-11.782-9.551-21.333-21.333-21.333c0-11.782-9.551-21.333-21.333-21.333
				c-11.782,0-21.333,9.551-21.333,21.333c-11.782,0-21.333,9.551-21.333,21.333C298.667,75.787,308.218,85.338,320,85.338z"/>
		</g>
	</g>
</g>
</svg>